<svg id="visual" viewBox="0 0 900 600" width="900" height="600" xmlns="http://www.w3.org/2000/svg" xmlns:xlink="http://www.w3.org/1999/xlink" version="1.1"><rect x="0" y="0" width="900" height="600" fill="#0D0221"></rect><defs><linearGradient id="grad1_0" x1="33.3%" y1="100%" x2="100%" y2="0%"><stop offset="20%" stop-color="#0d0221" stop-opacity="1"></stop><stop offset="80%" stop-color="#0d0221" stop-opacity="1"></stop></linearGradient></defs><defs><linearGradient id="grad2_0" x1="0%" y1="100%" x2="66.7%" y2="0%"><stop offset="20%" stop-color="#0d0221" stop-opacity="1"></stop><stop offset="80%" stop-color="#0d0221" stop-opacity="1"></stop></linearGradient></defs><g transform="translate(900, 600)"><path d="M-351.5 0C-340.6 -34.1 -329.7 -68.3 -320.5 -104.1C-311.3 -140 -303.9 -177.6 -281.5 -204.5C-259.1 -231.5 -221.7 -247.7 -187.5 -258.1C-153.3 -268.5 -122.2 -273 -91.5 -281.5C-60.7 -290 -30.4 -302.5 0 -315L0 0Z" fill="#26408B"></path></g><g transform="translate(0, 0)"><path d="M344 0C319 28.2 294.1 56.4 289.1 93.9C284.1 131.5 299.1 178.4 284.4 206.6C269.7 234.8 225.2 244.3 191 262.9C156.9 281.6 133 309.5 102.9 316.7C72.8 323.9 36.4 310.5 0 297L0 0Z" fill="#26408B"></path></g></svg>